<svg xmlns="http://www.w3.org/2000/svg" viewBox="0 0 64 64" role="img" aria-label="Nawab Sahil monogram favicon">
  <defs>
    <linearGradient id="g" x1="8" y1="8" x2="56" y2="56" gradientUnits="userSpaceOnUse">
      <stop offset="0%" stop-color="#FF5C00" />
      <stop offset="100%" stop-color="#FFB800" />
    </linearGradient>
  </defs>
  <rect width="64" height="64" rx="18" fill="#0A0907" />
  <rect x="5" y="5" width="54" height="54" rx="14" fill="none" stroke="url(#g)" stroke-width="3" />
  <path d="M19 45V19h6.5l18.5 20.7V19H45v26h-6.5L20 24.3V45H19Z" fill="#F4EEE4" />
  <path d="M45 45H35.2c-4.1 0-7.2-2.6-7.2-6.2 0-2.7 1.8-4.8 4.4-5.5-2.1-.7-3.4-2.4-3.4-4.7 0-3.2 2.6-5.6 6.7-5.6H45v4h-8.7c-1.7 0-2.7.9-2.7 2.1 0 1.3 1 2.1 2.8 2.1H45v3.8h-8.8c-2 0-3.1 1-3.1 2.4 0 1.6 1.2 2.5 3.3 2.5H45V45Z" fill="#C8FF00"/>
</svg>